<mxfile host="app.diagrams.net" modified="2023-12-03T07:34:33.578Z" agent="Mozilla/5.0 (Macintosh; Intel Mac OS X 10_15_7) AppleWebKit/537.36 (KHTML, like Gecko) Chrome/119.0.0.0 Safari/537.36" etag="2TavzCEmGDbj10qunre7" version="22.1.5" type="github">
  <diagram name="Page-1" id="zidWxDZTBbv9Yz6WOGqk">
    <mxGraphModel dx="956" dy="647" grid="1" gridSize="10" guides="1" tooltips="1" connect="1" arrows="1" fold="1" page="1" pageScale="1" pageWidth="2336" pageHeight="1654" math="0" shadow="0">
      <root>
        <mxCell id="0" />
        <mxCell id="1" parent="0" />
        <mxCell id="OQNPQIhbmYLAiWT2xSHp-117" style="edgeStyle=orthogonalEdgeStyle;rounded=0;orthogonalLoop=1;jettySize=auto;html=1;exitX=0;exitY=0.75;exitDx=0;exitDy=0;entryX=0.996;entryY=0.38;entryDx=0;entryDy=0;entryPerimeter=0;" parent="1" source="OQNPQIhbmYLAiWT2xSHp-4" target="OQNPQIhbmYLAiWT2xSHp-23" edge="1">
          <mxGeometry relative="1" as="geometry">
            <Array as="points">
              <mxPoint x="1673.14" y="680.1199999999999" />
              <mxPoint x="1673.14" y="692.1199999999999" />
            </Array>
          </mxGeometry>
        </mxCell>
        <mxCell id="OQNPQIhbmYLAiWT2xSHp-132" value="&lt;font style=&quot;font-size: 7px;&quot;&gt;&amp;nbsp;B -&amp;nbsp;&lt;/font&gt;" style="edgeLabel;html=1;align=center;verticalAlign=middle;resizable=0;points=[];" parent="OQNPQIhbmYLAiWT2xSHp-117" vertex="1" connectable="0">
          <mxGeometry x="0.6425" relative="1" as="geometry">
            <mxPoint x="1" y="-1" as="offset" />
          </mxGeometry>
        </mxCell>
        <mxCell id="OQNPQIhbmYLAiWT2xSHp-120" value="&lt;font style=&quot;font-size: 7px;&quot;&gt;GND&lt;/font&gt;" style="edgeLabel;html=1;align=center;verticalAlign=middle;resizable=0;points=[];" parent="OQNPQIhbmYLAiWT2xSHp-117" vertex="1" connectable="0">
          <mxGeometry x="-0.5706" relative="1" as="geometry">
            <mxPoint x="-1" y="-2" as="offset" />
          </mxGeometry>
        </mxCell>
        <mxCell id="OQNPQIhbmYLAiWT2xSHp-127" style="edgeStyle=orthogonalEdgeStyle;rounded=0;orthogonalLoop=1;jettySize=auto;html=1;exitX=0;exitY=0.75;exitDx=0;exitDy=0;entryX=1.001;entryY=0.302;entryDx=0;entryDy=0;endArrow=none;endFill=0;entryPerimeter=0;" parent="1" source="OQNPQIhbmYLAiWT2xSHp-23" target="OQNPQIhbmYLAiWT2xSHp-18" edge="1">
          <mxGeometry relative="1" as="geometry">
            <Array as="points">
              <mxPoint x="1402.14" y="732.1199999999999" />
            </Array>
          </mxGeometry>
        </mxCell>
        <mxCell id="OQNPQIhbmYLAiWT2xSHp-128" value="&lt;font style=&quot;font-size: 7px;&quot;&gt;GND&lt;/font&gt;" style="edgeLabel;html=1;align=center;verticalAlign=middle;resizable=0;points=[];" parent="OQNPQIhbmYLAiWT2xSHp-127" vertex="1" connectable="0">
          <mxGeometry x="-0.267" relative="1" as="geometry">
            <mxPoint x="-5" y="-1" as="offset" />
          </mxGeometry>
        </mxCell>
        <mxCell id="OQNPQIhbmYLAiWT2xSHp-4" value="Power Supply&lt;br style=&quot;border-color: var(--border-color); font-size: 9px;&quot;&gt;&lt;span style=&quot;font-size: 9px;&quot;&gt;16V DC 10A&lt;/span&gt;&lt;br style=&quot;border-color: var(--border-color); font-size: 9px;&quot;&gt;Power" style="rounded=1;whiteSpace=wrap;html=1;fillColor=#f8cecc;strokeColor=#b85450;align=right;fontSize=9;" parent="1" vertex="1">
          <mxGeometry x="1713.14" y="651.3699999999999" width="120" height="38" as="geometry" />
        </mxCell>
        <mxCell id="OQNPQIhbmYLAiWT2xSHp-6" value="Motor 1" style="rounded=1;whiteSpace=wrap;html=1;fillColor=#d5e8d4;strokeColor=#82b366;fontSize=9;" parent="1" vertex="1">
          <mxGeometry x="1697.14" y="709.1199999999999" width="66" height="35" as="geometry" />
        </mxCell>
        <mxCell id="OQNPQIhbmYLAiWT2xSHp-100" style="edgeStyle=orthogonalEdgeStyle;rounded=0;orthogonalLoop=1;jettySize=auto;html=1;exitX=0;exitY=0.5;exitDx=0;exitDy=0;fillColor=#fff2cc;strokeColor=#d6b656;" parent="1" source="OQNPQIhbmYLAiWT2xSHp-9" target="OQNPQIhbmYLAiWT2xSHp-18" edge="1">
          <mxGeometry relative="1" as="geometry">
            <Array as="points">
              <mxPoint x="1697.14" y="785.1199999999999" />
            </Array>
          </mxGeometry>
        </mxCell>
        <mxCell id="OQNPQIhbmYLAiWT2xSHp-104" value="&lt;font style=&quot;font-size: 7px;&quot;&gt;GPIO 18&amp;nbsp;&lt;/font&gt;" style="edgeLabel;html=1;align=center;verticalAlign=middle;resizable=0;points=[];" parent="OQNPQIhbmYLAiWT2xSHp-100" vertex="1" connectable="0">
          <mxGeometry x="0.8885" y="-1" relative="1" as="geometry">
            <mxPoint x="9" y="-1" as="offset" />
          </mxGeometry>
        </mxCell>
        <mxCell id="OQNPQIhbmYLAiWT2xSHp-108" value="&lt;font style=&quot;font-size: 7px;&quot;&gt;CHB1 (Encoder Pulse B)&lt;/font&gt;" style="edgeLabel;html=1;align=center;verticalAlign=middle;resizable=0;points=[];" parent="OQNPQIhbmYLAiWT2xSHp-100" vertex="1" connectable="0">
          <mxGeometry x="-0.7916" relative="1" as="geometry">
            <mxPoint x="-18" y="-1" as="offset" />
          </mxGeometry>
        </mxCell>
        <mxCell id="OQNPQIhbmYLAiWT2xSHp-130" style="edgeStyle=orthogonalEdgeStyle;rounded=0;orthogonalLoop=1;jettySize=auto;html=1;exitX=0;exitY=0.25;exitDx=0;exitDy=0;endArrow=none;endFill=0;" parent="1" source="OQNPQIhbmYLAiWT2xSHp-9" edge="1">
          <mxGeometry relative="1" as="geometry">
            <mxPoint x="1403.14" y="768.1199999999999" as="targetPoint" />
          </mxGeometry>
        </mxCell>
        <mxCell id="OQNPQIhbmYLAiWT2xSHp-131" value="&lt;font style=&quot;font-size: 7px;&quot;&gt;GND&lt;/font&gt;" style="edgeLabel;html=1;align=center;verticalAlign=middle;resizable=0;points=[];" parent="OQNPQIhbmYLAiWT2xSHp-130" vertex="1" connectable="0">
          <mxGeometry x="0.6144" y="-1" relative="1" as="geometry">
            <mxPoint x="5" as="offset" />
          </mxGeometry>
        </mxCell>
        <mxCell id="OQNPQIhbmYLAiWT2xSHp-9" value="Encoder" style="rounded=1;whiteSpace=wrap;html=1;fillColor=#fff2cc;strokeColor=#d6b656;fontSize=9;" parent="1" vertex="1">
          <mxGeometry x="1697.14" y="744.1199999999999" width="66" height="95" as="geometry" />
        </mxCell>
        <mxCell id="OQNPQIhbmYLAiWT2xSHp-84" style="edgeStyle=orthogonalEdgeStyle;rounded=0;orthogonalLoop=1;jettySize=auto;html=1;exitX=1;exitY=0.75;exitDx=0;exitDy=0;entryX=0;entryY=0.75;entryDx=0;entryDy=0;fillColor=#f8cecc;strokeColor=#000000;" parent="1" source="OQNPQIhbmYLAiWT2xSHp-23" target="OQNPQIhbmYLAiWT2xSHp-6" edge="1">
          <mxGeometry relative="1" as="geometry">
            <Array as="points">
              <mxPoint x="1633.14" y="735.1199999999999" />
            </Array>
          </mxGeometry>
        </mxCell>
        <mxCell id="OQNPQIhbmYLAiWT2xSHp-87" value="&lt;font style=&quot;font-size: 7px;&quot;&gt;&amp;nbsp;M -&amp;nbsp;&lt;/font&gt;" style="edgeLabel;html=1;align=center;verticalAlign=middle;resizable=0;points=[];" parent="OQNPQIhbmYLAiWT2xSHp-84" vertex="1" connectable="0">
          <mxGeometry x="-0.3712" relative="1" as="geometry">
            <mxPoint x="-6" y="-2" as="offset" />
          </mxGeometry>
        </mxCell>
        <mxCell id="OQNPQIhbmYLAiWT2xSHp-85" style="edgeStyle=orthogonalEdgeStyle;rounded=0;orthogonalLoop=1;jettySize=auto;html=1;exitX=1;exitY=0.5;exitDx=0;exitDy=0;entryX=0;entryY=0.5;entryDx=0;entryDy=0;fillColor=#f8cecc;strokeColor=#b85450;" parent="1" source="OQNPQIhbmYLAiWT2xSHp-23" target="OQNPQIhbmYLAiWT2xSHp-6" edge="1">
          <mxGeometry relative="1" as="geometry">
            <Array as="points">
              <mxPoint x="1633.14" y="726.1199999999999" />
            </Array>
          </mxGeometry>
        </mxCell>
        <mxCell id="OQNPQIhbmYLAiWT2xSHp-86" value="&lt;font style=&quot;font-size: 7px;&quot;&gt;&amp;nbsp;M +&amp;nbsp;&lt;/font&gt;" style="edgeLabel;html=1;align=center;verticalAlign=middle;resizable=0;points=[];" parent="OQNPQIhbmYLAiWT2xSHp-85" vertex="1" connectable="0">
          <mxGeometry x="-0.0845" relative="1" as="geometry">
            <mxPoint x="-6" y="-3" as="offset" />
          </mxGeometry>
        </mxCell>
        <mxCell id="OQNPQIhbmYLAiWT2xSHp-23" value="Motor Driver&lt;br style=&quot;font-size: 9px;&quot;&gt;&lt;b&gt;IBT_2&lt;/b&gt;" style="rounded=1;whiteSpace=wrap;html=1;fillColor=#dae8fc;strokeColor=#6c8ebf;fontSize=9;" parent="1" vertex="1">
          <mxGeometry x="1527.14" y="651.3699999999999" width="106" height="107.75" as="geometry" />
        </mxCell>
        <mxCell id="OQNPQIhbmYLAiWT2xSHp-34" style="edgeStyle=orthogonalEdgeStyle;rounded=0;orthogonalLoop=1;jettySize=auto;html=1;entryX=0.983;entryY=0.608;entryDx=0;entryDy=0;entryPerimeter=0;" parent="1" target="OQNPQIhbmYLAiWT2xSHp-5" edge="1">
          <mxGeometry relative="1" as="geometry">
            <mxPoint x="2023.14" y="619.1199999999999" as="targetPoint" />
            <Array as="points">
              <mxPoint x="1893.14" y="619.1199999999999" />
              <mxPoint x="1893.14" y="788.1199999999999" />
            </Array>
            <mxPoint x="1833.14" y="629.1199999999999" as="sourcePoint" />
          </mxGeometry>
        </mxCell>
        <mxCell id="OQNPQIhbmYLAiWT2xSHp-122" value="&lt;font style=&quot;font-size: 7px;&quot;&gt;GND&lt;/font&gt;" style="edgeLabel;html=1;align=center;verticalAlign=middle;resizable=0;points=[];" parent="OQNPQIhbmYLAiWT2xSHp-34" vertex="1" connectable="0">
          <mxGeometry x="0.722" relative="1" as="geometry">
            <mxPoint x="-9" y="-1" as="offset" />
          </mxGeometry>
        </mxCell>
        <mxCell id="OQNPQIhbmYLAiWT2xSHp-32" value="Festo Power Supply&lt;br style=&quot;border-color: var(--border-color); font-size: 9px;&quot;&gt;&lt;span style=&quot;font-size: 9px;&quot;&gt;24V DC 4A&lt;/span&gt;&lt;br style=&quot;border-color: var(--border-color); font-size: 9px;&quot;&gt;&lt;span style=&quot;font-size: 9px;&quot;&gt;Motor Relay Enable&lt;/span&gt;" style="rounded=1;whiteSpace=wrap;html=1;fillColor=#f8cecc;strokeColor=#b85450;align=right;fontSize=9;" parent="1" vertex="1">
          <mxGeometry x="1713.14" y="599.1199999999999" width="120" height="38" as="geometry" />
        </mxCell>
        <mxCell id="pYpoy-xko2efmzYNH34E-1" style="edgeStyle=orthogonalEdgeStyle;rounded=0;orthogonalLoop=1;jettySize=auto;html=1;exitX=1;exitY=0.25;exitDx=0;exitDy=0;entryX=0.25;entryY=1;entryDx=0;entryDy=0;fillColor=#f8cecc;strokeColor=#b85450;" parent="1" source="OQNPQIhbmYLAiWT2xSHp-33" target="OQNPQIhbmYLAiWT2xSHp-9" edge="1">
          <mxGeometry relative="1" as="geometry" />
        </mxCell>
        <mxCell id="pYpoy-xko2efmzYNH34E-2" value="&lt;font style=&quot;font-size: 7px;&quot;&gt;5V DC&lt;/font&gt;" style="edgeLabel;html=1;align=center;verticalAlign=middle;resizable=0;points=[];" parent="pYpoy-xko2efmzYNH34E-1" vertex="1" connectable="0">
          <mxGeometry x="0.0203" relative="1" as="geometry">
            <mxPoint y="-2" as="offset" />
          </mxGeometry>
        </mxCell>
        <mxCell id="OQNPQIhbmYLAiWT2xSHp-33" value="Power Supply&lt;br style=&quot;border-color: var(--border-color); font-size: 9px;&quot;&gt;&lt;span style=&quot;font-size: 9px;&quot;&gt;5V DC 10A&lt;/span&gt;&lt;br style=&quot;border-color: var(--border-color); font-size: 9px;&quot;&gt;&lt;span style=&quot;font-size: 9px;&quot;&gt;Encoder&lt;/span&gt;" style="rounded=1;whiteSpace=wrap;html=1;fillColor=#f8cecc;strokeColor=#b85450;align=right;fontSize=9;" parent="1" vertex="1">
          <mxGeometry x="1507.14" y="869.1199999999999" width="120" height="38" as="geometry" />
        </mxCell>
        <mxCell id="OQNPQIhbmYLAiWT2xSHp-62" style="edgeStyle=orthogonalEdgeStyle;rounded=0;orthogonalLoop=1;jettySize=auto;html=1;exitX=1;exitY=0.5;exitDx=0;exitDy=0;entryX=-0.002;entryY=0.179;entryDx=0;entryDy=0;entryPerimeter=0;fillColor=#d5e8d4;strokeColor=#82b366;" parent="1" source="OQNPQIhbmYLAiWT2xSHp-18" target="OQNPQIhbmYLAiWT2xSHp-23" edge="1">
          <mxGeometry relative="1" as="geometry">
            <Array as="points">
              <mxPoint x="1402.14" y="671.1199999999999" />
              <mxPoint x="1413.14" y="671.1199999999999" />
            </Array>
          </mxGeometry>
        </mxCell>
        <mxCell id="OQNPQIhbmYLAiWT2xSHp-71" value="&lt;font style=&quot;font-size: 7px;&quot;&gt;GPIO 5&lt;/font&gt;" style="edgeLabel;html=1;align=center;verticalAlign=middle;resizable=0;points=[];" parent="OQNPQIhbmYLAiWT2xSHp-62" vertex="1" connectable="0">
          <mxGeometry x="0.1032" y="-1" relative="1" as="geometry">
            <mxPoint x="-3" y="-2" as="offset" />
          </mxGeometry>
        </mxCell>
        <mxCell id="OQNPQIhbmYLAiWT2xSHp-72" value="&lt;font style=&quot;font-size: 7px;&quot;&gt;L_PWM&lt;/font&gt;" style="edgeLabel;html=1;align=center;verticalAlign=middle;resizable=0;points=[];" parent="OQNPQIhbmYLAiWT2xSHp-62" vertex="1" connectable="0">
          <mxGeometry x="0.6945" relative="1" as="geometry">
            <mxPoint x="10" y="-2" as="offset" />
          </mxGeometry>
        </mxCell>
        <mxCell id="OQNPQIhbmYLAiWT2xSHp-63" style="edgeStyle=orthogonalEdgeStyle;rounded=0;orthogonalLoop=1;jettySize=auto;html=1;entryX=-0.002;entryY=0.302;entryDx=0;entryDy=0;entryPerimeter=0;fillColor=#d5e8d4;strokeColor=#82b366;" parent="1" source="OQNPQIhbmYLAiWT2xSHp-18" target="OQNPQIhbmYLAiWT2xSHp-23" edge="1">
          <mxGeometry relative="1" as="geometry">
            <Array as="points">
              <mxPoint x="1465.14" y="684.1199999999999" />
            </Array>
          </mxGeometry>
        </mxCell>
        <mxCell id="OQNPQIhbmYLAiWT2xSHp-70" value="&lt;font style=&quot;font-size: 7px;&quot;&gt;GPIO 4&lt;/font&gt;" style="edgeLabel;html=1;align=center;verticalAlign=middle;resizable=0;points=[];" parent="OQNPQIhbmYLAiWT2xSHp-63" vertex="1" connectable="0">
          <mxGeometry x="-0.8296" relative="1" as="geometry">
            <mxPoint x="4" y="-2" as="offset" />
          </mxGeometry>
        </mxCell>
        <mxCell id="OQNPQIhbmYLAiWT2xSHp-73" value="&lt;font style=&quot;font-size: 7px;&quot;&gt;R_PWM&lt;/font&gt;" style="edgeLabel;html=1;align=center;verticalAlign=middle;resizable=0;points=[];" parent="OQNPQIhbmYLAiWT2xSHp-63" vertex="1" connectable="0">
          <mxGeometry x="0.333" relative="1" as="geometry">
            <mxPoint x="15" y="-2" as="offset" />
          </mxGeometry>
        </mxCell>
        <mxCell id="OQNPQIhbmYLAiWT2xSHp-66" style="edgeStyle=orthogonalEdgeStyle;rounded=0;orthogonalLoop=1;jettySize=auto;html=1;entryX=-0.006;entryY=0.437;entryDx=0;entryDy=0;entryPerimeter=0;fillColor=#d5e8d4;strokeColor=#82b366;" parent="1" source="OQNPQIhbmYLAiWT2xSHp-18" target="OQNPQIhbmYLAiWT2xSHp-23" edge="1">
          <mxGeometry relative="1" as="geometry">
            <Array as="points">
              <mxPoint x="1464.14" y="698.1199999999999" />
            </Array>
          </mxGeometry>
        </mxCell>
        <mxCell id="OQNPQIhbmYLAiWT2xSHp-69" value="&lt;font style=&quot;font-size: 7px;&quot;&gt;GPIO 3&lt;/font&gt;" style="edgeLabel;html=1;align=center;verticalAlign=middle;resizable=0;points=[];" parent="OQNPQIhbmYLAiWT2xSHp-66" vertex="1" connectable="0">
          <mxGeometry x="-0.8105" y="1" relative="1" as="geometry">
            <mxPoint x="3" as="offset" />
          </mxGeometry>
        </mxCell>
        <mxCell id="OQNPQIhbmYLAiWT2xSHp-74" value="&lt;font style=&quot;font-size: 7px;&quot;&gt;L_Enable&lt;/font&gt;" style="edgeLabel;html=1;align=center;verticalAlign=middle;resizable=0;points=[];" parent="OQNPQIhbmYLAiWT2xSHp-66" vertex="1" connectable="0">
          <mxGeometry x="0.3103" y="1" relative="1" as="geometry">
            <mxPoint x="15" y="-1" as="offset" />
          </mxGeometry>
        </mxCell>
        <mxCell id="OQNPQIhbmYLAiWT2xSHp-67" style="edgeStyle=orthogonalEdgeStyle;rounded=0;orthogonalLoop=1;jettySize=auto;html=1;entryX=-0.006;entryY=0.553;entryDx=0;entryDy=0;entryPerimeter=0;fillColor=#d5e8d4;strokeColor=#82b366;" parent="1" source="OQNPQIhbmYLAiWT2xSHp-18" target="OQNPQIhbmYLAiWT2xSHp-23" edge="1">
          <mxGeometry relative="1" as="geometry">
            <Array as="points">
              <mxPoint x="1443.14" y="711.1199999999999" />
            </Array>
          </mxGeometry>
        </mxCell>
        <mxCell id="OQNPQIhbmYLAiWT2xSHp-68" value="&lt;font style=&quot;font-size: 7px;&quot;&gt;GPIO 2&lt;/font&gt;" style="edgeLabel;html=1;align=center;verticalAlign=middle;resizable=0;points=[];" parent="OQNPQIhbmYLAiWT2xSHp-67" vertex="1" connectable="0">
          <mxGeometry x="-0.8704" relative="1" as="geometry">
            <mxPoint x="7" y="-2" as="offset" />
          </mxGeometry>
        </mxCell>
        <mxCell id="OQNPQIhbmYLAiWT2xSHp-75" value="&lt;font style=&quot;font-size: 7px;&quot;&gt;R_Enable&lt;/font&gt;" style="edgeLabel;html=1;align=center;verticalAlign=middle;resizable=0;points=[];" parent="OQNPQIhbmYLAiWT2xSHp-67" vertex="1" connectable="0">
          <mxGeometry x="0.255" y="1" relative="1" as="geometry">
            <mxPoint x="17" y="-1" as="offset" />
          </mxGeometry>
        </mxCell>
        <mxCell id="OQNPQIhbmYLAiWT2xSHp-76" value="Control" style="text;html=1;strokeColor=none;fillColor=none;align=center;verticalAlign=middle;whiteSpace=wrap;rounded=0;rotation=90;" parent="1" vertex="1">
          <mxGeometry x="1507.14" y="699.2399999999998" width="60" height="12" as="geometry" />
        </mxCell>
        <mxCell id="OQNPQIhbmYLAiWT2xSHp-77" value="Power" style="text;html=1;strokeColor=none;fillColor=none;align=center;verticalAlign=middle;whiteSpace=wrap;rounded=0;rotation=-90;" parent="1" vertex="1">
          <mxGeometry x="1591.14" y="699.2399999999998" width="60" height="12" as="geometry" />
        </mxCell>
        <mxCell id="OQNPQIhbmYLAiWT2xSHp-101" style="edgeStyle=orthogonalEdgeStyle;rounded=0;orthogonalLoop=1;jettySize=auto;html=1;exitX=0;exitY=0.5;exitDx=0;exitDy=0;fillColor=#fff2cc;strokeColor=#d6b656;" parent="1" source="OQNPQIhbmYLAiWT2xSHp-9" edge="1">
          <mxGeometry relative="1" as="geometry">
            <mxPoint x="1403.14" y="806.1199999999999" as="targetPoint" />
            <Array as="points">
              <mxPoint x="1697.14" y="806.1199999999999" />
            </Array>
          </mxGeometry>
        </mxCell>
        <mxCell id="OQNPQIhbmYLAiWT2xSHp-106" value="&lt;font style=&quot;font-size: 7px;&quot;&gt;GPIO 19&lt;/font&gt;" style="edgeLabel;html=1;align=center;verticalAlign=middle;resizable=0;points=[];" parent="OQNPQIhbmYLAiWT2xSHp-101" vertex="1" connectable="0">
          <mxGeometry x="0.8667" relative="1" as="geometry">
            <mxPoint x="4" y="-2" as="offset" />
          </mxGeometry>
        </mxCell>
        <mxCell id="OQNPQIhbmYLAiWT2xSHp-109" value="&lt;font style=&quot;font-size: 7px;&quot;&gt;CHC1 (Encoder Index Pulse)&lt;/font&gt;" style="edgeLabel;html=1;align=center;verticalAlign=middle;resizable=0;points=[];" parent="OQNPQIhbmYLAiWT2xSHp-101" vertex="1" connectable="0">
          <mxGeometry x="-0.4989" y="-1" relative="1" as="geometry">
            <mxPoint x="13" as="offset" />
          </mxGeometry>
        </mxCell>
        <mxCell id="OQNPQIhbmYLAiWT2xSHp-102" style="edgeStyle=orthogonalEdgeStyle;rounded=0;orthogonalLoop=1;jettySize=auto;html=1;entryX=1.003;entryY=0.662;entryDx=0;entryDy=0;entryPerimeter=0;fillColor=#fff2cc;strokeColor=#d6b656;" parent="1" source="OQNPQIhbmYLAiWT2xSHp-9" target="OQNPQIhbmYLAiWT2xSHp-18" edge="1">
          <mxGeometry relative="1" as="geometry">
            <Array as="points">
              <mxPoint x="1663.14" y="829.1199999999999" />
            </Array>
          </mxGeometry>
        </mxCell>
        <mxCell id="OQNPQIhbmYLAiWT2xSHp-107" value="&lt;font style=&quot;font-size: 7px;&quot;&gt;GPIO 20&lt;/font&gt;" style="edgeLabel;html=1;align=center;verticalAlign=middle;resizable=0;points=[];" parent="OQNPQIhbmYLAiWT2xSHp-102" vertex="1" connectable="0">
          <mxGeometry x="0.894" relative="1" as="geometry">
            <mxPoint x="10" y="-2" as="offset" />
          </mxGeometry>
        </mxCell>
        <mxCell id="OQNPQIhbmYLAiWT2xSHp-110" value="&lt;font style=&quot;font-size: 7px;&quot;&gt;MSWITCH (Home Switch)&lt;/font&gt;" style="edgeLabel;html=1;align=center;verticalAlign=middle;resizable=0;points=[];" parent="OQNPQIhbmYLAiWT2xSHp-102" vertex="1" connectable="0">
          <mxGeometry x="-0.6516" relative="1" as="geometry">
            <mxPoint x="6" y="-2" as="offset" />
          </mxGeometry>
        </mxCell>
        <mxCell id="OQNPQIhbmYLAiWT2xSHp-115" style="edgeStyle=orthogonalEdgeStyle;rounded=0;orthogonalLoop=1;jettySize=auto;html=1;exitX=1.001;exitY=0.544;exitDx=0;exitDy=0;entryX=0.5;entryY=1;entryDx=0;entryDy=0;exitPerimeter=0;" parent="1" source="OQNPQIhbmYLAiWT2xSHp-33" target="OQNPQIhbmYLAiWT2xSHp-9" edge="1">
          <mxGeometry relative="1" as="geometry">
            <Array as="points">
              <mxPoint x="1730.14" y="890.1199999999999" />
            </Array>
          </mxGeometry>
        </mxCell>
        <mxCell id="OQNPQIhbmYLAiWT2xSHp-116" value="&lt;font style=&quot;font-size: 7px;&quot;&gt;GND&lt;/font&gt;" style="edgeLabel;html=1;align=center;verticalAlign=middle;resizable=0;points=[];" parent="OQNPQIhbmYLAiWT2xSHp-115" vertex="1" connectable="0">
          <mxGeometry x="0.7378" y="-1" relative="1" as="geometry">
            <mxPoint x="-37" y="28" as="offset" />
          </mxGeometry>
        </mxCell>
        <mxCell id="OQNPQIhbmYLAiWT2xSHp-121" style="edgeStyle=orthogonalEdgeStyle;rounded=0;orthogonalLoop=1;jettySize=auto;html=1;exitX=1;exitY=0.5;exitDx=0;exitDy=0;fillColor=#f8cecc;strokeColor=#b85450;entryX=1;entryY=0.5;entryDx=0;entryDy=0;" parent="1" source="OQNPQIhbmYLAiWT2xSHp-32" target="OQNPQIhbmYLAiWT2xSHp-5" edge="1">
          <mxGeometry relative="1" as="geometry">
            <mxPoint x="2003.14" y="659.1199999999999" as="targetPoint" />
            <Array as="points">
              <mxPoint x="1833.14" y="629.1199999999999" />
              <mxPoint x="1883.14" y="629.1199999999999" />
              <mxPoint x="1883.14" y="774.1199999999999" />
            </Array>
          </mxGeometry>
        </mxCell>
        <mxCell id="OQNPQIhbmYLAiWT2xSHp-123" value="&lt;font style=&quot;font-size: 7px;&quot;&gt;24V DC&lt;/font&gt;" style="edgeLabel;html=1;align=center;verticalAlign=middle;resizable=0;points=[];" parent="OQNPQIhbmYLAiWT2xSHp-121" vertex="1" connectable="0">
          <mxGeometry x="0.656" relative="1" as="geometry">
            <mxPoint x="-16" y="-3" as="offset" />
          </mxGeometry>
        </mxCell>
        <mxCell id="OQNPQIhbmYLAiWT2xSHp-5" value="Tarjeta de Control de Encendido de Motores" style="rounded=1;whiteSpace=wrap;html=1;fillColor=#f5f5f5;strokeColor=#666666;fontSize=9;fontColor=#333333;" parent="1" vertex="1">
          <mxGeometry x="1763.14" y="709.1199999999999" width="70" height="130" as="geometry" />
        </mxCell>
        <mxCell id="OQNPQIhbmYLAiWT2xSHp-18" value="Microcontroller&lt;br&gt;Arduino&lt;br style=&quot;font-size: 9px;&quot;&gt;&lt;b&gt;MEGA 2650 R3&lt;/b&gt;" style="rounded=1;whiteSpace=wrap;html=1;fillColor=#dae8fc;strokeColor=#6c8ebf;fontSize=9;" parent="1" vertex="1">
          <mxGeometry x="1293.14" y="651.3699999999999" width="109" height="267.75" as="geometry" />
        </mxCell>
        <mxCell id="OQNPQIhbmYLAiWT2xSHp-118" style="edgeStyle=orthogonalEdgeStyle;rounded=0;orthogonalLoop=1;jettySize=auto;html=1;exitX=0;exitY=0.25;exitDx=0;exitDy=0;entryX=1;entryY=0.25;entryDx=0;entryDy=0;fillColor=#f8cecc;strokeColor=#b85450;" parent="1" source="OQNPQIhbmYLAiWT2xSHp-4" target="OQNPQIhbmYLAiWT2xSHp-23" edge="1">
          <mxGeometry relative="1" as="geometry">
            <Array as="points">
              <mxPoint x="1713.14" y="666.1199999999999" />
              <mxPoint x="1663.14" y="666.1199999999999" />
              <mxPoint x="1663.14" y="678.1199999999999" />
            </Array>
          </mxGeometry>
        </mxCell>
        <mxCell id="OQNPQIhbmYLAiWT2xSHp-133" value="&lt;font style=&quot;font-size: 7px;&quot;&gt;&amp;nbsp;B +&amp;nbsp;&lt;/font&gt;" style="edgeLabel;html=1;align=center;verticalAlign=middle;resizable=0;points=[];" parent="OQNPQIhbmYLAiWT2xSHp-118" vertex="1" connectable="0">
          <mxGeometry x="0.6459" relative="1" as="geometry">
            <mxPoint x="1" y="-2" as="offset" />
          </mxGeometry>
        </mxCell>
        <mxCell id="OQNPQIhbmYLAiWT2xSHp-119" value="&lt;font style=&quot;font-size: 7px;&quot;&gt;16V DC&lt;/font&gt;" style="edgeLabel;html=1;align=center;verticalAlign=middle;resizable=0;points=[];" parent="OQNPQIhbmYLAiWT2xSHp-118" vertex="1" connectable="0">
          <mxGeometry x="-0.4782" y="-1" relative="1" as="geometry">
            <mxPoint x="-5" y="1" as="offset" />
          </mxGeometry>
        </mxCell>
        <mxCell id="1H5KosDCN3i-o-nQhYtA-3" value="" style="edgeStyle=orthogonalEdgeStyle;rounded=0;orthogonalLoop=1;jettySize=auto;html=1;fillColor=#dae8fc;strokeColor=#6c8ebf;" parent="1" source="1H5KosDCN3i-o-nQhYtA-1" target="1H5KosDCN3i-o-nQhYtA-2" edge="1">
          <mxGeometry relative="1" as="geometry" />
        </mxCell>
        <mxCell id="1H5KosDCN3i-o-nQhYtA-1" value="&lt;b&gt;Conexión USB&lt;br&gt;&lt;/b&gt;Alimentación del Arduino MEGA 2560 R3" style="rounded=1;whiteSpace=wrap;html=1;fillColor=#dae8fc;strokeColor=#6c8ebf;fontSize=9;" parent="1" vertex="1">
          <mxGeometry x="528.9999999999999" y="360" width="106" height="47.75" as="geometry" />
        </mxCell>
        <mxCell id="1H5KosDCN3i-o-nQhYtA-5" value="" style="edgeStyle=orthogonalEdgeStyle;rounded=0;orthogonalLoop=1;jettySize=auto;html=1;fillColor=#dae8fc;strokeColor=#6c8ebf;" parent="1" source="1H5KosDCN3i-o-nQhYtA-2" target="1H5KosDCN3i-o-nQhYtA-4" edge="1">
          <mxGeometry relative="1" as="geometry" />
        </mxCell>
        <mxCell id="1H5KosDCN3i-o-nQhYtA-2" value="&lt;span style=&quot;font-weight: normal;&quot;&gt;Declaración de Variables&lt;/span&gt;" style="rounded=1;whiteSpace=wrap;html=1;fillColor=#dae8fc;strokeColor=#6c8ebf;fontSize=9;fontStyle=1" parent="1" vertex="1">
          <mxGeometry x="528.9999999999999" y="440" width="106" height="45" as="geometry" />
        </mxCell>
        <mxCell id="1H5KosDCN3i-o-nQhYtA-9" value="" style="edgeStyle=orthogonalEdgeStyle;rounded=0;orthogonalLoop=1;jettySize=auto;html=1;fillColor=#dae8fc;strokeColor=#6c8ebf;" parent="1" source="1H5KosDCN3i-o-nQhYtA-4" target="1H5KosDCN3i-o-nQhYtA-8" edge="1">
          <mxGeometry relative="1" as="geometry" />
        </mxCell>
        <mxCell id="1H5KosDCN3i-o-nQhYtA-4" value="&lt;span style=&quot;font-weight: normal;&quot;&gt;Definición de pines, inicio de comunicación serial.&lt;/span&gt;" style="rounded=1;whiteSpace=wrap;html=1;fillColor=#dae8fc;strokeColor=#6c8ebf;fontSize=9;fontStyle=1" parent="1" vertex="1">
          <mxGeometry x="528.9999999999999" y="510" width="106" height="45" as="geometry" />
        </mxCell>
        <mxCell id="1H5KosDCN3i-o-nQhYtA-13" value="" style="edgeStyle=orthogonalEdgeStyle;rounded=0;orthogonalLoop=1;jettySize=auto;html=1;fontStyle=1;entryX=1;entryY=0.5;entryDx=0;entryDy=0;fillColor=#dae8fc;strokeColor=#6c8ebf;" parent="1" source="1H5KosDCN3i-o-nQhYtA-8" target="1H5KosDCN3i-o-nQhYtA-14" edge="1">
          <mxGeometry relative="1" as="geometry">
            <mxPoint x="461.9999999999999" y="619.5" as="targetPoint" />
          </mxGeometry>
        </mxCell>
        <mxCell id="1H5KosDCN3i-o-nQhYtA-32" value="No" style="edgeLabel;html=1;align=center;verticalAlign=middle;resizable=0;points=[];fontSize=10;" parent="1H5KosDCN3i-o-nQhYtA-13" vertex="1" connectable="0">
          <mxGeometry x="-0.1465" relative="1" as="geometry">
            <mxPoint y="-2" as="offset" />
          </mxGeometry>
        </mxCell>
        <mxCell id="hUvvsOVWD2ckr60uyyzo-20" style="edgeStyle=orthogonalEdgeStyle;rounded=0;orthogonalLoop=1;jettySize=auto;html=1;exitX=1;exitY=0.5;exitDx=0;exitDy=0;entryX=0;entryY=0.5;entryDx=0;entryDy=0;fillColor=#dae8fc;strokeColor=#6c8ebf;" parent="1" source="1H5KosDCN3i-o-nQhYtA-8" target="1H5KosDCN3i-o-nQhYtA-10" edge="1">
          <mxGeometry relative="1" as="geometry" />
        </mxCell>
        <mxCell id="hUvvsOVWD2ckr60uyyzo-21" value="&lt;font style=&quot;font-size: 10px;&quot;&gt;Si&lt;/font&gt;" style="edgeLabel;html=1;align=center;verticalAlign=middle;resizable=0;points=[];" parent="hUvvsOVWD2ckr60uyyzo-20" vertex="1" connectable="0">
          <mxGeometry x="-0.199" y="1" relative="1" as="geometry">
            <mxPoint x="1" as="offset" />
          </mxGeometry>
        </mxCell>
        <mxCell id="1H5KosDCN3i-o-nQhYtA-8" value="&lt;span style=&quot;font-weight: normal;&quot;&gt;¿Estoy en &lt;/span&gt;&lt;br&gt;Home&lt;span style=&quot;font-weight: normal;&quot;&gt;?&lt;/span&gt;" style="rhombus;whiteSpace=wrap;html=1;fontSize=9;fillColor=#dae8fc;strokeColor=#6c8ebf;rounded=1;fontStyle=1;" parent="1" vertex="1">
          <mxGeometry x="541.9999999999999" y="579.5" width="80" height="80" as="geometry" />
        </mxCell>
        <mxCell id="1H5KosDCN3i-o-nQhYtA-142" style="edgeStyle=orthogonalEdgeStyle;rounded=0;orthogonalLoop=1;jettySize=auto;html=1;exitX=1;exitY=0.5;exitDx=0;exitDy=0;entryX=0;entryY=0.5;entryDx=0;entryDy=0;fillColor=#dae8fc;strokeColor=#6c8ebf;" parent="1" source="1H5KosDCN3i-o-nQhYtA-10" target="1H5KosDCN3i-o-nQhYtA-76" edge="1">
          <mxGeometry relative="1" as="geometry" />
        </mxCell>
        <mxCell id="1H5KosDCN3i-o-nQhYtA-10" value="&lt;span style=&quot;font-weight: 400;&quot;&gt;Almacenar&lt;br&gt;posición actual&lt;br&gt;0°&lt;br&gt;&lt;/span&gt;" style="ellipse;whiteSpace=wrap;html=1;fontSize=9;fillColor=#dae8fc;strokeColor=#6c8ebf;rounded=1;fontStyle=1;" parent="1" vertex="1">
          <mxGeometry x="669.9999999999999" y="579.5" width="80" height="80" as="geometry" />
        </mxCell>
        <mxCell id="1H5KosDCN3i-o-nQhYtA-37" value="" style="edgeStyle=orthogonalEdgeStyle;rounded=0;orthogonalLoop=1;jettySize=auto;html=1;fillColor=#d5e8d4;strokeColor=#82b366;" parent="1" source="1H5KosDCN3i-o-nQhYtA-14" target="1H5KosDCN3i-o-nQhYtA-36" edge="1">
          <mxGeometry relative="1" as="geometry" />
        </mxCell>
        <mxCell id="1H5KosDCN3i-o-nQhYtA-14" value="&lt;span style=&quot;font-weight: normal;&quot;&gt;Ejecutar funcion&lt;br&gt;&lt;/span&gt;findhome()" style="whiteSpace=wrap;html=1;fontSize=9;fillColor=#d5e8d4;strokeColor=#82b366;rounded=1;fontStyle=1;" parent="1" vertex="1">
          <mxGeometry x="365.9999999999999" y="589.5" width="120" height="60" as="geometry" />
        </mxCell>
        <mxCell id="1H5KosDCN3i-o-nQhYtA-21" style="edgeStyle=orthogonalEdgeStyle;rounded=0;orthogonalLoop=1;jettySize=auto;html=1;exitX=0.5;exitY=1;exitDx=0;exitDy=0;entryX=0.5;entryY=0;entryDx=0;entryDy=0;fillColor=#d5e8d4;strokeColor=#82b366;" parent="1" source="1H5KosDCN3i-o-nQhYtA-18" target="1H5KosDCN3i-o-nQhYtA-20" edge="1">
          <mxGeometry relative="1" as="geometry" />
        </mxCell>
        <mxCell id="1H5KosDCN3i-o-nQhYtA-18" value="&lt;span style=&quot;font-weight: 400;&quot;&gt;Detectar la Señal de &lt;/span&gt;Home&lt;br&gt;&lt;span style=&quot;font-weight: 400;&quot;&gt;Interrupt Pin&lt;/span&gt;&lt;br&gt;GPIO 20" style="whiteSpace=wrap;html=1;fontSize=9;fillColor=#d5e8d4;strokeColor=#82b366;rounded=1;fontStyle=1;" parent="1" vertex="1">
          <mxGeometry x="365.9999999999999" y="760" width="120" height="60" as="geometry" />
        </mxCell>
        <mxCell id="1H5KosDCN3i-o-nQhYtA-23" value="" style="edgeStyle=orthogonalEdgeStyle;rounded=0;orthogonalLoop=1;jettySize=auto;html=1;fillColor=#d5e8d4;strokeColor=#82b366;" parent="1" source="1H5KosDCN3i-o-nQhYtA-20" target="1H5KosDCN3i-o-nQhYtA-22" edge="1">
          <mxGeometry relative="1" as="geometry" />
        </mxCell>
        <mxCell id="1H5KosDCN3i-o-nQhYtA-20" value="&lt;span style=&quot;font-weight: 400;&quot;&gt;Detectar la Señal de &lt;/span&gt;Index&lt;br&gt;&lt;span style=&quot;font-weight: 400;&quot;&gt;Interrupt Pin&lt;/span&gt;&lt;br&gt;GPIO 19" style="whiteSpace=wrap;html=1;fontSize=9;fillColor=#d5e8d4;strokeColor=#82b366;rounded=1;fontStyle=1;" parent="1" vertex="1">
          <mxGeometry x="365.9999999999999" y="843" width="120" height="60" as="geometry" />
        </mxCell>
        <mxCell id="1H5KosDCN3i-o-nQhYtA-25" value="" style="edgeStyle=orthogonalEdgeStyle;rounded=0;orthogonalLoop=1;jettySize=auto;html=1;exitX=1;exitY=0.5;exitDx=0;exitDy=0;fillColor=#d5e8d4;strokeColor=#82b366;" parent="1" source="1H5KosDCN3i-o-nQhYtA-22" edge="1">
          <mxGeometry relative="1" as="geometry">
            <mxPoint x="515.9999999999999" y="861.1199999999999" as="sourcePoint" />
            <mxPoint x="549.9999999999999" y="985.1199999999999" as="targetPoint" />
          </mxGeometry>
        </mxCell>
        <mxCell id="1H5KosDCN3i-o-nQhYtA-26" value="Si" style="edgeLabel;html=1;align=center;verticalAlign=middle;resizable=0;points=[];fontSize=10;" parent="1H5KosDCN3i-o-nQhYtA-25" vertex="1" connectable="0">
          <mxGeometry x="0.0733" y="1" relative="1" as="geometry">
            <mxPoint x="-17" y="-1" as="offset" />
          </mxGeometry>
        </mxCell>
        <mxCell id="1H5KosDCN3i-o-nQhYtA-30" value="" style="edgeStyle=orthogonalEdgeStyle;rounded=0;orthogonalLoop=1;jettySize=auto;html=1;entryX=0.5;entryY=0;entryDx=0;entryDy=0;fillColor=#d5e8d4;strokeColor=#82b366;" parent="1" source="1H5KosDCN3i-o-nQhYtA-22" target="1H5KosDCN3i-o-nQhYtA-34" edge="1">
          <mxGeometry relative="1" as="geometry">
            <mxPoint x="425.9999999999999" y="1087.12" as="targetPoint" />
          </mxGeometry>
        </mxCell>
        <mxCell id="1H5KosDCN3i-o-nQhYtA-31" value="No" style="edgeLabel;html=1;align=center;verticalAlign=middle;resizable=0;points=[];fontSize=10;" parent="1H5KosDCN3i-o-nQhYtA-30" vertex="1" connectable="0">
          <mxGeometry x="-0.1411" relative="1" as="geometry">
            <mxPoint y="-3" as="offset" />
          </mxGeometry>
        </mxCell>
        <mxCell id="1H5KosDCN3i-o-nQhYtA-22" value="&lt;span style=&quot;font-weight: 400;&quot;&gt;¿Detección de &lt;br&gt;señales en&lt;br&gt;ese&lt;br&gt;orden?&lt;br&gt;&lt;/span&gt;" style="rhombus;whiteSpace=wrap;html=1;fontSize=9;fillColor=#d5e8d4;strokeColor=#82b366;rounded=1;fontStyle=1;" parent="1" vertex="1">
          <mxGeometry x="370.9999999999999" y="929.1199999999999" width="110" height="112" as="geometry" />
        </mxCell>
        <mxCell id="1H5KosDCN3i-o-nQhYtA-33" style="edgeStyle=orthogonalEdgeStyle;rounded=0;orthogonalLoop=1;jettySize=auto;html=1;entryX=0.226;entryY=0.716;entryDx=0;entryDy=0;fillColor=#d5e8d4;strokeColor=#82b366;entryPerimeter=0;" parent="1" source="1H5KosDCN3i-o-nQhYtA-24" target="1H5KosDCN3i-o-nQhYtA-8" edge="1">
          <mxGeometry relative="1" as="geometry">
            <Array as="points" />
          </mxGeometry>
        </mxCell>
        <mxCell id="1H5KosDCN3i-o-nQhYtA-24" value="Posición &lt;b&gt;Home&lt;/b&gt; encontrada" style="ellipse;whiteSpace=wrap;html=1;fontSize=9;fillColor=#d5e8d4;strokeColor=#82b366;rounded=1;fontStyle=0;" parent="1" vertex="1">
          <mxGeometry x="519.9999999999999" y="945.1199999999999" width="80" height="80" as="geometry" />
        </mxCell>
        <mxCell id="1H5KosDCN3i-o-nQhYtA-40" value="" style="edgeStyle=orthogonalEdgeStyle;rounded=0;orthogonalLoop=1;jettySize=auto;html=1;fillColor=#d5e8d4;strokeColor=#82b366;" parent="1" source="1H5KosDCN3i-o-nQhYtA-34" target="1H5KosDCN3i-o-nQhYtA-39" edge="1">
          <mxGeometry relative="1" as="geometry" />
        </mxCell>
        <mxCell id="1H5KosDCN3i-o-nQhYtA-44" value="Si" style="edgeLabel;html=1;align=center;verticalAlign=middle;resizable=0;points=[];fontSize=10;" parent="1H5KosDCN3i-o-nQhYtA-40" vertex="1" connectable="0">
          <mxGeometry x="-0.5203" y="1" relative="1" as="geometry">
            <mxPoint x="-2" y="4" as="offset" />
          </mxGeometry>
        </mxCell>
        <mxCell id="1H5KosDCN3i-o-nQhYtA-34" value="&lt;span style=&quot;font-weight: 400;&quot;&gt;¿Articulación llego&lt;br&gt;a un tope físico?&lt;br&gt;&lt;/span&gt;" style="rhombus;whiteSpace=wrap;html=1;fontSize=9;fillColor=#d5e8d4;strokeColor=#82b366;rounded=1;fontStyle=1;" parent="1" vertex="1">
          <mxGeometry x="370.9999999999999" y="1080" width="110" height="112" as="geometry" />
        </mxCell>
        <mxCell id="1H5KosDCN3i-o-nQhYtA-38" style="edgeStyle=orthogonalEdgeStyle;rounded=0;orthogonalLoop=1;jettySize=auto;html=1;fillColor=#d5e8d4;strokeColor=#82b366;" parent="1" source="1H5KosDCN3i-o-nQhYtA-36" target="1H5KosDCN3i-o-nQhYtA-18" edge="1">
          <mxGeometry relative="1" as="geometry" />
        </mxCell>
        <mxCell id="1H5KosDCN3i-o-nQhYtA-36" value="&lt;span style=&quot;font-weight: 400;&quot;&gt;Movimiento de la articulación en sentido antihorario.&lt;/span&gt;&lt;br&gt;PWM2 - GPIO 5" style="whiteSpace=wrap;html=1;fontSize=9;fillColor=#d5e8d4;strokeColor=#82b366;rounded=1;fontStyle=1;" parent="1" vertex="1">
          <mxGeometry x="365.9999999999999" y="674.25" width="120" height="60" as="geometry" />
        </mxCell>
        <mxCell id="1H5KosDCN3i-o-nQhYtA-43" style="edgeStyle=orthogonalEdgeStyle;rounded=0;orthogonalLoop=1;jettySize=auto;html=1;exitX=0;exitY=0.5;exitDx=0;exitDy=0;entryX=0;entryY=0.5;entryDx=0;entryDy=0;fillColor=#d5e8d4;strokeColor=#82b366;" parent="1" source="1H5KosDCN3i-o-nQhYtA-39" target="1H5KosDCN3i-o-nQhYtA-18" edge="1">
          <mxGeometry relative="1" as="geometry">
            <Array as="points">
              <mxPoint x="339.9999999999999" y="1260" />
              <mxPoint x="339.9999999999999" y="790" />
            </Array>
          </mxGeometry>
        </mxCell>
        <mxCell id="1H5KosDCN3i-o-nQhYtA-39" value="&lt;span style=&quot;font-weight: normal;&quot;&gt;Movimiento de la articulación en sentido horario.&lt;/span&gt;&lt;span style=&quot;border-color: var(--border-color); font-weight: normal; border-color: var(--border-color);&quot;&gt;&lt;/span&gt;&lt;br style=&quot;border-color: var(--border-color);&quot;&gt;PWM1 - GPIO 4" style="whiteSpace=wrap;html=1;fontSize=9;fillColor=#d5e8d4;strokeColor=#82b366;rounded=1;fontStyle=1;" parent="1" vertex="1">
          <mxGeometry x="365.9999999999999" y="1230" width="120" height="60" as="geometry" />
        </mxCell>
        <mxCell id="1H5KosDCN3i-o-nQhYtA-59" value="" style="edgeStyle=orthogonalEdgeStyle;rounded=0;orthogonalLoop=1;jettySize=auto;html=1;exitX=0.5;exitY=1;exitDx=0;exitDy=0;entryX=0.5;entryY=0;entryDx=0;entryDy=0;fillColor=#fad9d5;strokeColor=#ae4132;" parent="1" source="1H5KosDCN3i-o-nQhYtA-47" target="1H5KosDCN3i-o-nQhYtA-58" edge="1">
          <mxGeometry relative="1" as="geometry">
            <Array as="points">
              <mxPoint x="866.9999999999999" y="770" />
              <mxPoint x="708.9999999999999" y="770" />
            </Array>
          </mxGeometry>
        </mxCell>
        <mxCell id="1H5KosDCN3i-o-nQhYtA-65" value="" style="edgeStyle=orthogonalEdgeStyle;rounded=0;orthogonalLoop=1;jettySize=auto;html=1;exitX=0.5;exitY=1;exitDx=0;exitDy=0;entryX=0.5;entryY=0;entryDx=0;entryDy=0;fillColor=#fad9d5;strokeColor=#ae4132;" parent="1" source="1H5KosDCN3i-o-nQhYtA-47" target="1H5KosDCN3i-o-nQhYtA-64" edge="1">
          <mxGeometry relative="1" as="geometry">
            <Array as="points">
              <mxPoint x="865.9999999999999" y="770" />
              <mxPoint x="915.9999999999999" y="770" />
            </Array>
          </mxGeometry>
        </mxCell>
        <mxCell id="1H5KosDCN3i-o-nQhYtA-67" style="edgeStyle=orthogonalEdgeStyle;rounded=0;orthogonalLoop=1;jettySize=auto;html=1;exitX=0.5;exitY=1;exitDx=0;exitDy=0;entryX=0.5;entryY=0;entryDx=0;entryDy=0;fillColor=#fad9d5;strokeColor=#ae4132;" parent="1" source="1H5KosDCN3i-o-nQhYtA-47" target="1H5KosDCN3i-o-nQhYtA-66" edge="1">
          <mxGeometry relative="1" as="geometry">
            <Array as="points">
              <mxPoint x="866.9999999999999" y="770" />
              <mxPoint x="1020.9999999999999" y="770" />
            </Array>
          </mxGeometry>
        </mxCell>
        <mxCell id="1H5KosDCN3i-o-nQhYtA-68" style="edgeStyle=orthogonalEdgeStyle;rounded=0;orthogonalLoop=1;jettySize=auto;html=1;exitX=0.5;exitY=1;exitDx=0;exitDy=0;entryX=0.5;entryY=0;entryDx=0;entryDy=0;fillColor=#fad9d5;strokeColor=#ae4132;" parent="1" source="1H5KosDCN3i-o-nQhYtA-47" target="1H5KosDCN3i-o-nQhYtA-60" edge="1">
          <mxGeometry relative="1" as="geometry">
            <Array as="points">
              <mxPoint x="865.9999999999999" y="770" />
              <mxPoint x="812.9999999999999" y="770" />
            </Array>
          </mxGeometry>
        </mxCell>
        <mxCell id="1H5KosDCN3i-o-nQhYtA-47" value="&lt;span style=&quot;font-weight: 400;&quot;&gt;Separación de caracteres&lt;br&gt;comando&lt;/span&gt;&lt;br&gt;&lt;span style=&quot;font-weight: 400;&quot;&gt;valor&lt;/span&gt;" style="rounded=1;whiteSpace=wrap;html=1;fillColor=#fad9d5;strokeColor=#ae4132;fontSize=9;fontStyle=1" parent="1" vertex="1">
          <mxGeometry x="804.9999999999999" y="677.25" width="123" height="60" as="geometry" />
        </mxCell>
        <mxCell id="1H5KosDCN3i-o-nQhYtA-103" style="edgeStyle=orthogonalEdgeStyle;rounded=0;orthogonalLoop=1;jettySize=auto;html=1;exitX=0;exitY=0.5;exitDx=0;exitDy=0;entryX=1;entryY=1;entryDx=0;entryDy=0;fillColor=#fff2cc;strokeColor=#d6b656;" parent="1" source="1H5KosDCN3i-o-nQhYtA-58" target="1H5KosDCN3i-o-nQhYtA-8" edge="1">
          <mxGeometry relative="1" as="geometry" />
        </mxCell>
        <mxCell id="1H5KosDCN3i-o-nQhYtA-58" value="&lt;span style=&quot;font-weight: normal;&quot;&gt;GOH&lt;/span&gt;&lt;br&gt;Go Home" style="ellipse;whiteSpace=wrap;html=1;fontSize=9;fillColor=#fff2cc;strokeColor=#d6b656;rounded=1;fontStyle=1;" parent="1" vertex="1">
          <mxGeometry x="668.9999999999999" y="804.1199999999999" width="80" height="80" as="geometry" />
        </mxCell>
        <mxCell id="1H5KosDCN3i-o-nQhYtA-108" style="edgeStyle=orthogonalEdgeStyle;rounded=0;orthogonalLoop=1;jettySize=auto;html=1;exitX=0.5;exitY=1;exitDx=0;exitDy=0;fillColor=#e1d5e7;strokeColor=#9673a6;" parent="1" source="1H5KosDCN3i-o-nQhYtA-60" target="1H5KosDCN3i-o-nQhYtA-105" edge="1">
          <mxGeometry relative="1" as="geometry">
            <Array as="points">
              <mxPoint x="812.9999999999999" y="900" />
              <mxPoint x="796.9999999999999" y="900" />
            </Array>
          </mxGeometry>
        </mxCell>
        <mxCell id="1H5KosDCN3i-o-nQhYtA-60" value="&lt;span style=&quot;font-weight: normal;&quot;&gt;GOR&lt;/span&gt;&lt;br&gt;Go Right" style="ellipse;whiteSpace=wrap;html=1;fontSize=9;fillColor=#e1d5e7;strokeColor=#9673a6;rounded=1;fontStyle=1;" parent="1" vertex="1">
          <mxGeometry x="772.9999999999999" y="804.1199999999999" width="80" height="80" as="geometry" />
        </mxCell>
        <mxCell id="1H5KosDCN3i-o-nQhYtA-64" value="&lt;span style=&quot;font-weight: normal;&quot;&gt;GOL&lt;/span&gt;&lt;br&gt;Go Left" style="ellipse;whiteSpace=wrap;html=1;fontSize=9;rounded=1;fontStyle=1;fillColor=#f5f5f5;fontColor=#333333;strokeColor=#666666;" parent="1" vertex="1">
          <mxGeometry x="876.9999999999999" y="804.1199999999999" width="80" height="80" as="geometry" />
        </mxCell>
        <mxCell id="1H5KosDCN3i-o-nQhYtA-132" value="" style="edgeStyle=orthogonalEdgeStyle;rounded=0;orthogonalLoop=1;jettySize=auto;html=1;" parent="1" source="1H5KosDCN3i-o-nQhYtA-66" target="1H5KosDCN3i-o-nQhYtA-131" edge="1">
          <mxGeometry relative="1" as="geometry" />
        </mxCell>
        <mxCell id="1H5KosDCN3i-o-nQhYtA-66" value="&lt;span style=&quot;font-weight: normal;&quot;&gt;REP&lt;br&gt;&lt;/span&gt;Report Position" style="ellipse;whiteSpace=wrap;html=1;fontSize=9;rounded=1;fontStyle=1;" parent="1" vertex="1">
          <mxGeometry x="980.9999999999999" y="804.1199999999999" width="80" height="80" as="geometry" />
        </mxCell>
        <mxCell id="1H5KosDCN3i-o-nQhYtA-81" style="edgeStyle=orthogonalEdgeStyle;rounded=0;orthogonalLoop=1;jettySize=auto;html=1;entryX=0.5;entryY=0;entryDx=0;entryDy=0;fillColor=#fad9d5;strokeColor=#ae4132;" parent="1" source="1H5KosDCN3i-o-nQhYtA-76" target="1H5KosDCN3i-o-nQhYtA-47" edge="1">
          <mxGeometry relative="1" as="geometry" />
        </mxCell>
        <mxCell id="1H5KosDCN3i-o-nQhYtA-76" value="&lt;span style=&quot;font-weight: normal;&quot;&gt;Ingresar el comando y posición absoluta en el monitor serial&lt;br&gt;&lt;/span&gt;" style="rounded=1;whiteSpace=wrap;html=1;fillColor=#fad9d5;strokeColor=#ae4132;fontSize=9;fontStyle=1;" parent="1" vertex="1">
          <mxGeometry x="804.9999999999999" y="589.5" width="123" height="60" as="geometry" />
        </mxCell>
        <mxCell id="1H5KosDCN3i-o-nQhYtA-115" value="" style="edgeStyle=orthogonalEdgeStyle;rounded=0;orthogonalLoop=1;jettySize=auto;html=1;fillColor=#e1d5e7;strokeColor=#9673a6;entryX=0.25;entryY=0;entryDx=0;entryDy=0;exitX=0.5;exitY=1;exitDx=0;exitDy=0;" parent="1" source="1H5KosDCN3i-o-nQhYtA-105" target="1H5KosDCN3i-o-nQhYtA-116" edge="1">
          <mxGeometry relative="1" as="geometry">
            <mxPoint x="796.9999999999999" y="994.1199999999999" as="sourcePoint" />
            <mxPoint x="797.0181818181817" y="1036" as="targetPoint" />
          </mxGeometry>
        </mxCell>
        <mxCell id="1H5KosDCN3i-o-nQhYtA-105" value="&lt;span style=&quot;font-weight: normal;&quot;&gt;Validar que &#39;&lt;/span&gt;valor&lt;span style=&quot;font-weight: normal;&quot;&gt;&#39; no supere el limite de la articulación&lt;/span&gt;" style="whiteSpace=wrap;html=1;fontSize=9;fillColor=#e1d5e7;strokeColor=#9673a6;rounded=1;fontStyle=1;" parent="1" vertex="1">
          <mxGeometry x="736.9999999999999" y="919.1199999999999" width="120" height="60" as="geometry" />
        </mxCell>
        <mxCell id="1H5KosDCN3i-o-nQhYtA-117" style="edgeStyle=orthogonalEdgeStyle;rounded=0;orthogonalLoop=1;jettySize=auto;html=1;exitX=0.5;exitY=1;exitDx=0;exitDy=0;entryX=0.75;entryY=0;entryDx=0;entryDy=0;fillColor=#f5f5f5;strokeColor=#666666;" parent="1" source="1H5KosDCN3i-o-nQhYtA-112" target="1H5KosDCN3i-o-nQhYtA-116" edge="1">
          <mxGeometry relative="1" as="geometry" />
        </mxCell>
        <mxCell id="1H5KosDCN3i-o-nQhYtA-112" value="&lt;span style=&quot;font-weight: normal;&quot;&gt;Validar que &#39;&lt;/span&gt;valor&lt;span style=&quot;font-weight: normal;&quot;&gt;&#39; no supere el limite de la articulación&lt;/span&gt;" style="whiteSpace=wrap;html=1;fontSize=9;rounded=1;fontStyle=1;fillColor=#f5f5f5;fontColor=#333333;strokeColor=#666666;" parent="1" vertex="1">
          <mxGeometry x="876.9999999999999" y="919.1199999999999" width="120" height="60" as="geometry" />
        </mxCell>
        <mxCell id="1H5KosDCN3i-o-nQhYtA-113" style="edgeStyle=orthogonalEdgeStyle;rounded=0;orthogonalLoop=1;jettySize=auto;html=1;exitX=0.5;exitY=1;exitDx=0;exitDy=0;entryX=0.475;entryY=-0.037;entryDx=0;entryDy=0;entryPerimeter=0;fillColor=#f5f5f5;strokeColor=#666666;" parent="1" source="1H5KosDCN3i-o-nQhYtA-64" target="1H5KosDCN3i-o-nQhYtA-112" edge="1">
          <mxGeometry relative="1" as="geometry">
            <Array as="points">
              <mxPoint x="916.9999999999999" y="900" />
              <mxPoint x="933.9999999999999" y="900" />
            </Array>
          </mxGeometry>
        </mxCell>
        <mxCell id="hUvvsOVWD2ckr60uyyzo-26" style="edgeStyle=orthogonalEdgeStyle;rounded=0;orthogonalLoop=1;jettySize=auto;html=1;entryX=0.5;entryY=0;entryDx=0;entryDy=0;fillColor=#ffe6cc;strokeColor=#d79b00;exitX=0.493;exitY=1.003;exitDx=0;exitDy=0;exitPerimeter=0;" parent="1" source="1H5KosDCN3i-o-nQhYtA-116" target="1H5KosDCN3i-o-nQhYtA-119" edge="1">
          <mxGeometry relative="1" as="geometry">
            <mxPoint x="863.9999999999999" y="1030.0000000000005" as="sourcePoint" />
            <Array as="points">
              <mxPoint x="863.9999999999999" y="1080" />
              <mxPoint x="796.9999999999999" y="1080" />
            </Array>
          </mxGeometry>
        </mxCell>
        <mxCell id="hUvvsOVWD2ckr60uyyzo-28" value="valor +" style="edgeLabel;html=1;align=center;verticalAlign=middle;resizable=0;points=[];fontSize=10;" parent="hUvvsOVWD2ckr60uyyzo-26" vertex="1" connectable="0">
          <mxGeometry x="0.3856" y="1" relative="1" as="geometry">
            <mxPoint x="2" y="13" as="offset" />
          </mxGeometry>
        </mxCell>
        <mxCell id="hUvvsOVWD2ckr60uyyzo-27" style="edgeStyle=orthogonalEdgeStyle;rounded=0;orthogonalLoop=1;jettySize=auto;html=1;fillColor=#ffe6cc;strokeColor=#d79b00;exitX=0.493;exitY=0.995;exitDx=0;exitDy=0;exitPerimeter=0;" parent="1" source="1H5KosDCN3i-o-nQhYtA-116" target="1H5KosDCN3i-o-nQhYtA-121" edge="1">
          <mxGeometry relative="1" as="geometry">
            <mxPoint x="859.9999999999999" y="1060" as="sourcePoint" />
            <Array as="points">
              <mxPoint x="863.9999999999999" y="1080" />
              <mxPoint x="936.9999999999999" y="1080" />
            </Array>
          </mxGeometry>
        </mxCell>
        <mxCell id="hUvvsOVWD2ckr60uyyzo-29" value="valor -" style="edgeLabel;html=1;align=center;verticalAlign=middle;resizable=0;points=[];fontSize=10;" parent="hUvvsOVWD2ckr60uyyzo-27" vertex="1" connectable="0">
          <mxGeometry x="-0.0105" y="-1" relative="1" as="geometry">
            <mxPoint x="30" y="13" as="offset" />
          </mxGeometry>
        </mxCell>
        <mxCell id="1H5KosDCN3i-o-nQhYtA-116" value="&lt;span style=&quot;font-weight: normal;&quot;&gt;Ejecutar función&lt;br&gt;&lt;/span&gt;GoAngulo" style="whiteSpace=wrap;html=1;fontSize=9;rounded=1;fontStyle=1;fillColor=#ffe6cc;strokeColor=#d79b00;" parent="1" vertex="1">
          <mxGeometry x="789.9999999999999" y="1015" width="150" height="43" as="geometry" />
        </mxCell>
        <mxCell id="hUvvsOVWD2ckr60uyyzo-24" style="edgeStyle=orthogonalEdgeStyle;rounded=0;orthogonalLoop=1;jettySize=auto;html=1;entryX=0;entryY=0;entryDx=0;entryDy=0;fillColor=#e1d5e7;strokeColor=#9673a6;" parent="1" source="1H5KosDCN3i-o-nQhYtA-119" target="hUvvsOVWD2ckr60uyyzo-8" edge="1">
          <mxGeometry relative="1" as="geometry" />
        </mxCell>
        <mxCell id="1H5KosDCN3i-o-nQhYtA-119" value="Mover&lt;span style=&quot;font-weight: normal;&quot;&gt; articulación en sentido &lt;/span&gt;horario&lt;span style=&quot;font-weight: normal;&quot;&gt; hasta&lt;br&gt;&amp;nbsp;alcanzar posición&lt;/span&gt;" style="whiteSpace=wrap;html=1;fontSize=9;fillColor=#e1d5e7;strokeColor=#9673a6;rounded=1;fontStyle=1;" parent="1" vertex="1">
          <mxGeometry x="736.9999999999999" y="1119.5" width="120" height="60" as="geometry" />
        </mxCell>
        <mxCell id="hUvvsOVWD2ckr60uyyzo-25" style="edgeStyle=orthogonalEdgeStyle;rounded=0;orthogonalLoop=1;jettySize=auto;html=1;exitX=0.5;exitY=1;exitDx=0;exitDy=0;entryX=1;entryY=0;entryDx=0;entryDy=0;fillColor=#f5f5f5;strokeColor=#666666;" parent="1" source="1H5KosDCN3i-o-nQhYtA-121" target="hUvvsOVWD2ckr60uyyzo-8" edge="1">
          <mxGeometry relative="1" as="geometry" />
        </mxCell>
        <mxCell id="1H5KosDCN3i-o-nQhYtA-121" value="Mover&lt;span style=&quot;font-weight: normal;&quot;&gt; articulación en sentido &lt;/span&gt;antihorario &lt;br&gt;&lt;span style=&quot;font-weight: normal;&quot;&gt;hasta alcanzar posición&lt;/span&gt;" style="whiteSpace=wrap;html=1;fontSize=9;fillColor=#f5f5f5;strokeColor=#666666;rounded=1;fontStyle=1;fontColor=#333333;" parent="1" vertex="1">
          <mxGeometry x="876.9999999999999" y="1119.5" width="120" height="60" as="geometry" />
        </mxCell>
        <mxCell id="1H5KosDCN3i-o-nQhYtA-126" value="Imprimir &quot;&lt;b&gt;Fail&lt;/b&gt;&quot;" style="whiteSpace=wrap;html=1;fontSize=9;fillColor=#fad7ac;strokeColor=#b46504;rounded=1;fontStyle=0;" parent="1" vertex="1">
          <mxGeometry x="980.9999999999999" y="1280.88" width="120" height="35.88" as="geometry" />
        </mxCell>
        <mxCell id="1H5KosDCN3i-o-nQhYtA-128" value="Imprimir &lt;b&gt;posición actual&lt;/b&gt;" style="whiteSpace=wrap;html=1;fontSize=9;fillColor=#fad7ac;strokeColor=#b46504;rounded=1;fontStyle=0;" parent="1" vertex="1">
          <mxGeometry x="980.9999999999999" y="1222.94" width="120" height="35.88" as="geometry" />
        </mxCell>
        <mxCell id="1H5KosDCN3i-o-nQhYtA-141" style="edgeStyle=orthogonalEdgeStyle;rounded=0;orthogonalLoop=1;jettySize=auto;html=1;exitX=1;exitY=0.5;exitDx=0;exitDy=0;entryX=1;entryY=0.75;entryDx=0;entryDy=0;" parent="1" source="1H5KosDCN3i-o-nQhYtA-131" target="1H5KosDCN3i-o-nQhYtA-76" edge="1">
          <mxGeometry relative="1" as="geometry">
            <mxPoint x="1065.3647075736576" y="648.278152992078" as="targetPoint" />
            <Array as="points">
              <mxPoint x="1147" y="949" />
              <mxPoint x="1147" y="635" />
              <mxPoint x="927.9999999999999" y="635" />
            </Array>
          </mxGeometry>
        </mxCell>
        <mxCell id="1H5KosDCN3i-o-nQhYtA-131" value="&lt;span style=&quot;font-weight: normal;&quot;&gt;Imprimir &lt;/span&gt;posición actual" style="whiteSpace=wrap;html=1;fontSize=9;rounded=1;fontStyle=1;" parent="1" vertex="1">
          <mxGeometry x="1016.9999999999999" y="919.1199999999999" width="120" height="60" as="geometry" />
        </mxCell>
        <mxCell id="hUvvsOVWD2ckr60uyyzo-10" style="edgeStyle=orthogonalEdgeStyle;rounded=0;orthogonalLoop=1;jettySize=auto;html=1;exitX=1;exitY=0.5;exitDx=0;exitDy=0;entryX=0;entryY=0.5;entryDx=0;entryDy=0;fillColor=#fad7ac;strokeColor=#b46504;" parent="1" source="hUvvsOVWD2ckr60uyyzo-8" target="1H5KosDCN3i-o-nQhYtA-128" edge="1">
          <mxGeometry relative="1" as="geometry" />
        </mxCell>
        <mxCell id="hUvvsOVWD2ckr60uyyzo-12" value="Si" style="edgeLabel;html=1;align=center;verticalAlign=middle;resizable=0;points=[];fontSize=10;" parent="hUvvsOVWD2ckr60uyyzo-10" vertex="1" connectable="0">
          <mxGeometry x="-0.0665" relative="1" as="geometry">
            <mxPoint x="-3" as="offset" />
          </mxGeometry>
        </mxCell>
        <mxCell id="hUvvsOVWD2ckr60uyyzo-32" style="edgeStyle=orthogonalEdgeStyle;rounded=0;orthogonalLoop=1;jettySize=auto;html=1;exitX=0.5;exitY=1;exitDx=0;exitDy=0;entryX=0;entryY=0.5;entryDx=0;entryDy=0;fillColor=#ffe6cc;strokeColor=#d79b00;" parent="1" source="hUvvsOVWD2ckr60uyyzo-8" target="1H5KosDCN3i-o-nQhYtA-126" edge="1">
          <mxGeometry relative="1" as="geometry" />
        </mxCell>
        <mxCell id="hUvvsOVWD2ckr60uyyzo-33" value="&lt;font style=&quot;font-size: 10px;&quot;&gt;No&lt;/font&gt;" style="edgeLabel;html=1;align=center;verticalAlign=middle;resizable=0;points=[];" parent="hUvvsOVWD2ckr60uyyzo-32" vertex="1" connectable="0">
          <mxGeometry x="0.317" y="1" relative="1" as="geometry">
            <mxPoint as="offset" />
          </mxGeometry>
        </mxCell>
        <mxCell id="hUvvsOVWD2ckr60uyyzo-8" value="&lt;span style=&quot;font-weight: normal;&quot;&gt;¿Llegó a la posición&lt;br&gt;deseada?&lt;/span&gt;" style="rhombus;whiteSpace=wrap;html=1;fontSize=9;fillColor=#fad7ac;strokeColor=#b46504;rounded=1;fontStyle=1;" parent="1" vertex="1">
          <mxGeometry x="824.9999999999999" y="1200.88" width="80" height="80" as="geometry" />
        </mxCell>
        <mxCell id="hUvvsOVWD2ckr60uyyzo-16" style="edgeStyle=orthogonalEdgeStyle;rounded=0;orthogonalLoop=1;jettySize=auto;html=1;exitX=1;exitY=0.5;exitDx=0;exitDy=0;entryX=1;entryY=0.5;entryDx=0;entryDy=0;fillColor=#fad7ac;strokeColor=#b46504;" parent="1" source="1H5KosDCN3i-o-nQhYtA-128" target="1H5KosDCN3i-o-nQhYtA-76" edge="1">
          <mxGeometry relative="1" as="geometry">
            <Array as="points">
              <mxPoint x="1160" y="1241" />
              <mxPoint x="1160" y="620" />
              <mxPoint x="927.9999999999999" y="620" />
            </Array>
          </mxGeometry>
        </mxCell>
        <mxCell id="hUvvsOVWD2ckr60uyyzo-17" style="edgeStyle=orthogonalEdgeStyle;rounded=0;orthogonalLoop=1;jettySize=auto;html=1;exitX=1;exitY=0.5;exitDx=0;exitDy=0;entryX=1;entryY=0.25;entryDx=0;entryDy=0;fillColor=#fad7ac;strokeColor=#b46504;" parent="1" source="1H5KosDCN3i-o-nQhYtA-126" target="1H5KosDCN3i-o-nQhYtA-76" edge="1">
          <mxGeometry relative="1" as="geometry">
            <Array as="points">
              <mxPoint x="1170" y="1305" />
              <mxPoint x="1170" y="604" />
            </Array>
          </mxGeometry>
        </mxCell>
        <mxCell id="O-teGVjLX70lfkyYScmD-1" value="&lt;b style=&quot;font-size: 22px;&quot;&gt;DIAGRAMA DE PROCESO&lt;br&gt;&lt;/b&gt;&lt;font style=&quot;font-size: 13px;&quot; face=&quot;Helvetica&quot;&gt;&lt;b style=&quot;text-align: center; background-color: initial;&quot;&gt;Desarrollo de un controlador de bajo costo para las articulaciones de 2 brazos robóticos del Laboratorio T-119&lt;br&gt;CIM&amp;nbsp;&lt;/b&gt;&lt;b style=&quot;text-align: center; background-color: initial;&quot;&gt;&lt;span style=&quot;line-height: 19.9733px;&quot; lang=&quot;ES-MX&quot;&gt;del Campus Central de la Universidad Rafael Landívar&lt;/span&gt;&lt;/b&gt;&lt;b style=&quot;text-align: center; background-color: initial;&quot;&gt;&lt;br&gt;&lt;/b&gt;&lt;/font&gt;&lt;font style=&quot;&quot;&gt;&lt;span style=&quot;font-size: 15px;&quot;&gt;&lt;br&gt;&lt;/span&gt;&lt;br&gt;&lt;span style=&quot;font-size: 15px;&quot;&gt;&lt;b&gt;Elaborado por&lt;/b&gt;: Fernando Gómez y Emilio Guzmán&lt;/span&gt;&lt;br&gt;&lt;font style=&quot;font-size: 15px;&quot;&gt;&lt;b&gt;Ubicación&lt;/b&gt;:&amp;nbsp;&lt;/font&gt;https://github.com/fgomez1211/Personal/blob/main/MIR/6T/Manufactura%20Flexible/Laboratorio%203/Laboratorio%203%20-%20Diagrama%20de%20Proceso.drawio&lt;br&gt;&lt;/font&gt;" style="text;html=1;strokeColor=none;fillColor=none;align=left;verticalAlign=middle;whiteSpace=wrap;rounded=0;" vertex="1" parent="1">
          <mxGeometry x="40" y="30" width="1450" height="300" as="geometry" />
        </mxCell>
      </root>
    </mxGraphModel>
  </diagram>
</mxfile>
